<?xml version="1.0" encoding="utf-8"?>
<!-- Generator: Adobe Illustrator 15.0.0, SVG Export Plug-In . SVG Version: 6.00 Build 0)  -->
<!DOCTYPE svg PUBLIC "-//W3C//DTD SVG 1.1//EN" "http://www.w3.org/Graphics/SVG/1.1/DTD/svg11.dtd">
<svg version="1.1" id="Layer_1" xmlns="http://www.w3.org/2000/svg" xmlns:xlink="http://www.w3.org/1999/xlink" x="0px" y="0px"
	 width="226.866px" height="145.771px" viewBox="0 0 226.866 145.771" enable-background="new 0 0 226.866 145.771"
	 xml:space="preserve">
<g>
	<path fill="#AA7D4A" d="M9.219,73.387c0,0,26.151,4.68,62.567-15.254c36.434-19.92,78.143-16.812,103.99-2.18
		c25.834,14.633,35.494,25.536,35.494,25.536s-33.73-24.422-74.514-24.727c-40.279-0.305-50.332,5.418-60.914,8.219
		C65.255,67.781,33.188,80.867,9.219,73.387z"/>
	<g>
		<path fill="#736F75" d="M50.935,105.992V89.264c0-1.562,0.17-2.885,0.516-4c0.34-1.113,0.885-2.133,1.646-3.07
			c1.654-1.865,3.758-2.803,6.309-2.803c1.5,0,2.943,0.352,4.314,1.066c1.383,0.715,2.497,1.723,3.336,3.037
			c0.838,1.312,1.26,2.801,1.26,4.477c0,1.584-0.363,3.014-1.096,4.281c-0.733,1.266-1.742,2.264-3.043,2.967
			c-1.277,0.703-2.69,1.055-4.244,1.055h-4.168v-3.072h3.969c1.548,0,2.813-0.492,3.775-1.477c0.961-0.996,1.441-2.264,1.441-3.822
			c0-1.033-0.229-1.947-0.68-2.768c-0.457-0.832-1.09-1.477-1.898-1.934c-0.81-0.469-1.713-0.705-2.709-0.705
			c-1.09,0-2.017,0.26-2.803,0.785c-0.779,0.529-1.377,1.291-1.793,2.287c-0.411,1.008-0.622,2.182-0.622,3.553v16.871H50.935z"/>
		<path fill="#736F75" d="M83.335,98.312c0-1.266-0.218-2.461-0.657-3.588c-0.439-1.137-1.103-2.051-1.993-2.754
			c-0.902-0.703-1.993-1.057-3.26-1.057c-1.148,0-2.156,0.295-3.036,0.893c-0.891,0.586-1.571,1.371-2.063,2.332
			c-0.475,0.963-0.715,1.971-0.715,3.037c0,1.629,0.51,3.002,1.536,4.092c1.107,1.277,2.567,1.91,4.35,1.91
			c1.7,0,3.224-0.562,4.555-1.688v3.4c-0.984,0.562-1.812,0.949-2.468,1.16c-0.657,0.225-1.425,0.328-2.299,0.328
			c-1.652,0-3.164-0.41-4.537-1.219c-1.371-0.809-2.45-1.922-3.241-3.318c-0.792-1.406-1.19-2.943-1.19-4.619
			c0-1.688,0.41-3.26,1.226-4.713c0.814-1.455,1.917-2.604,3.312-3.447c1.401-0.832,2.932-1.254,4.572-1.254
			c1.73,0,3.295,0.469,4.667,1.418c1.396,0.949,2.462,2.191,3.224,3.74c0.75,1.549,1.126,3.178,1.126,4.877v8.148h-3.106V98.312z"/>
		<path fill="#736F75" d="M99.585,105.992h-2.299c-1.137,0-2.122-0.082-2.937-0.246c-0.804-0.141-1.53-0.387-2.175-0.738
			c-0.633-0.352-1.277-0.832-1.923-1.453c-0.868-0.869-1.524-1.854-1.97-2.955s-0.668-2.24-0.668-3.424
			c0-1.301,0.275-2.557,0.82-3.787c0.539-1.219,1.324-2.264,2.345-3.129c0.833-0.717,1.735-1.244,2.708-1.561
			c0.974-0.316,2.158-0.469,3.553-0.469h2.545v2.777h-1.864c-1.349,0-2.521,0.248-3.535,0.74s-1.8,1.207-2.351,2.135
			c-0.551,0.936-0.833,2.027-0.833,3.246c0,1.301,0.294,2.402,0.88,3.318c0.598,0.926,1.4,1.617,2.408,2.098
			c1.016,0.469,2.135,0.703,3.349,0.703h1.946V105.992z"/>
		<path fill="#736F75" d="M103.899,81.535c0.352,0.41,0.527,0.914,0.527,1.514c0,0.596-0.176,1.102-0.527,1.523
			c-0.352,0.41-0.862,0.621-1.513,0.621c-0.663,0-1.173-0.211-1.524-0.621c-0.352-0.434-0.527-0.938-0.527-1.523
			c0-0.576,0.176-1.068,0.539-1.49c0.352-0.422,0.856-0.633,1.513-0.633C103.037,80.926,103.548,81.125,103.899,81.535z
			 M100.786,105.992V88.23h3.201v17.762H100.786z"/>
		<path fill="#736F75" d="M109.655,105.992h-3.201V86.906c0-2.24,0.635-3.988,1.889-5.23c1.219-1.184,2.977-1.771,5.287-1.771h2.545
			v2.58h-1.941c-1.576,0.012-2.725,0.363-3.465,1.068c-0.738,0.703-1.113,1.793-1.113,3.283v1.395h6.52v2.777h-6.52V105.992z"/>
		<path fill="#736F75" d="M120.185,81.535c0.352,0.41,0.527,0.914,0.527,1.514c0,0.596-0.176,1.102-0.527,1.523
			c-0.363,0.41-0.861,0.621-1.525,0.621c-0.656,0-1.16-0.211-1.512-0.621c-0.357-0.434-0.527-0.938-0.527-1.523
			c0-0.576,0.17-1.068,0.533-1.49c0.357-0.422,0.861-0.633,1.506-0.633C119.323,80.926,119.821,81.125,120.185,81.535z
			 M117.071,105.992V88.23h3.201v17.762H117.071z"/>
		<path fill="#736F75" d="M133.937,105.992h-2.285c-1.143,0-2.129-0.082-2.943-0.246c-0.809-0.141-1.535-0.387-2.18-0.738
			c-0.635-0.352-1.273-0.832-1.924-1.453c-0.855-0.869-1.518-1.854-1.963-2.955c-0.439-1.102-0.664-2.24-0.664-3.424
			c0-1.301,0.271-2.557,0.811-3.787c0.539-1.219,1.33-2.264,2.355-3.129c0.822-0.717,1.725-1.244,2.709-1.561
			c0.973-0.316,2.158-0.469,3.541-0.469h2.543v2.777h-1.863c-1.35,0-2.521,0.248-3.529,0.74c-1.02,0.492-1.795,1.207-2.352,2.135
			c-0.557,0.936-0.838,2.027-0.838,3.246c0,1.301,0.299,2.402,0.881,3.318c0.598,0.926,1.406,1.617,2.414,2.098
			c1.008,0.469,2.133,0.703,3.354,0.703h1.934V105.992z"/>
		<path fill="#736F75" d="M142.882,105.992V89.051c0-1.547,0.166-2.861,0.482-3.939c0.322-1.066,0.832-2.062,1.535-3.002
			c0.762-0.879,1.719-1.547,2.861-2.016c1.137-0.469,2.332-0.703,3.594-0.703c1.377,0,2.678,0.281,3.904,0.844
			c1.225,0.574,2.221,1.418,2.971,2.521c0.758,1.113,1.137,2.426,1.137,3.939c0,1.275-0.34,2.461-1.02,3.564
			c-0.674,1.088-1.57,1.934-2.689,2.508c1.107,0.352,1.969,0.867,2.572,1.547c0.611,0.68,1.027,1.49,1.244,2.416
			c0.223,0.916,0.334,2.004,0.334,3.26v6.002h-3.359v-5.029c0-1.652-0.199-3-0.598-4.068c-0.398-1.055-1.244-1.783-2.533-2.156
			c-0.574-0.143-1.266-0.223-2.076-0.223h-3.451v-2.791h2.691c0.961,0,1.875-0.176,2.76-0.516c0.867-0.354,1.578-0.881,2.117-1.572
			c0.551-0.691,0.826-1.547,0.826-2.568c0-1.359-0.486-2.449-1.461-3.246c-0.961-0.811-2.086-1.207-3.369-1.207
			c-0.838,0-1.625,0.188-2.352,0.562s-1.312,0.938-1.746,1.676c-0.365,0.586-0.604,1.256-0.705,1.992
			c-0.104,0.752-0.152,1.678-0.152,2.768v16.379H142.882z"/>
		<path fill="#736F75" d="M178.231,102.955l-0.035,3.037h-13.717c-2.105,0-3.154-0.68-3.154-2.027c0-0.727,0.498-1.502,1.5-2.334
			l8.432-7.902c1.266-1.113,2.156-2.145,2.701-3.07c0.545-0.928,0.814-1.9,0.814-2.932c0-0.951-0.223-1.854-0.668-2.662
			c-0.445-0.82-1.055-1.467-1.816-1.945c-0.762-0.457-1.602-0.693-2.527-0.693c-0.979,0-1.846,0.26-2.621,0.785
			c-0.756,0.541-1.336,1.232-1.752,2.076c-0.416,0.855-0.627,1.734-0.627,2.65c0,1.57,0.598,2.861,1.781,3.857
			c0.693,0.668,1.842,1.055,3.436,1.148l-2.508,2.475c-1.748-0.377-3.213-1.291-4.363-2.732c-1.154-1.43-1.723-3.084-1.723-4.959
			c0-1.537,0.375-2.943,1.137-4.232c0.752-1.301,1.789-2.322,3.102-3.061c1.32-0.75,2.768-1.115,4.355-1.115
			c1.584,0,3.002,0.389,4.25,1.174c1.238,0.785,2.199,1.84,2.891,3.143c0.668,1.289,1.002,2.672,1.002,4.139
			c0,1.77-0.51,3.398-1.535,4.912c-0.686,0.879-1.812,2.053-3.383,3.518l-6.59,5.814c-0.398,0.281-0.604,0.494-0.604,0.621
			c0,0.213,0.348,0.316,1.045,0.316H178.231z"/>
		<path fill="#736F75" d="M179.921,105.992V89.051c0-1.547,0.152-2.861,0.469-3.939c0.328-1.066,0.844-2.062,1.535-3.002
			c0.77-0.879,1.725-1.547,2.867-2.016c1.131-0.469,2.34-0.703,3.594-0.703c1.371,0,2.672,0.281,3.91,0.844
			c1.225,0.574,2.209,1.418,2.965,2.521c0.756,1.113,1.133,2.426,1.133,3.939c0,1.275-0.334,2.461-1.021,3.564
			c-0.668,1.088-1.57,1.934-2.684,2.508c1.102,0.352,1.963,0.867,2.572,1.547s1.027,1.49,1.25,2.416
			c0.217,0.916,0.328,2.004,0.328,3.26v6.002h-3.365v-5.029c0-1.652-0.199-3-0.598-4.068c-0.398-1.055-1.244-1.783-2.533-2.156
			c-0.574-0.143-1.266-0.223-2.068-0.223h-3.453v-2.791h2.686c0.961,0,1.881-0.176,2.766-0.516c0.855-0.354,1.572-0.881,2.117-1.572
			c0.551-0.691,0.826-1.547,0.826-2.568c0-1.359-0.492-2.449-1.453-3.246c-0.969-0.811-2.1-1.207-3.377-1.207
			c-0.844,0-1.625,0.188-2.357,0.562c-0.721,0.375-1.301,0.938-1.74,1.676c-0.369,0.586-0.604,1.256-0.711,1.992
			c-0.1,0.752-0.15,1.678-0.15,2.768v16.379H179.921z"/>
	</g>
	<path fill="#149FC6" d="M49.954,130.955v-12.84c0-1.16,0.13-2.158,0.364-2.977c0.253-0.811,0.645-1.561,1.167-2.264
		c0.58-0.668,1.302-1.184,2.169-1.537c0.862-0.35,1.765-0.539,2.726-0.539c1.038,0,2.028,0.223,2.955,0.645
		c0.926,0.434,1.682,1.068,2.251,1.912c0.574,0.844,0.862,1.83,0.862,2.979c0,0.973-0.258,1.875-0.775,2.697
		c-0.51,0.842-1.189,1.465-2.039,1.898c0.838,0.27,1.494,0.668,1.952,1.184c0.463,0.516,0.774,1.125,0.949,1.83
		c0.165,0.689,0.246,1.512,0.246,2.461v4.551h-2.556v-3.811c0-1.244-0.141-2.275-0.445-3.074c-0.305-0.809-0.938-1.346-1.923-1.641
		c-0.435-0.105-0.95-0.164-1.56-0.164h-2.627v-2.121h2.041c0.727,0,1.43-0.131,2.093-0.387c0.65-0.27,1.19-0.67,1.612-1.186
		c0.41-0.539,0.621-1.184,0.621-1.945c0-1.033-0.369-1.852-1.102-2.463c-0.739-0.609-1.59-0.926-2.557-0.926
		c-0.645,0-1.23,0.152-1.781,0.434c-0.552,0.293-0.991,0.717-1.325,1.279c-0.282,0.443-0.452,0.949-0.534,1.512
		c-0.076,0.562-0.117,1.254-0.117,2.086v12.406H49.954z"/>
	<path fill="#149FC6" d="M66.733,112.43c0.258,0.316,0.397,0.691,0.397,1.148c0,0.445-0.14,0.834-0.397,1.15
		c-0.271,0.316-0.656,0.469-1.162,0.469c-0.492,0-0.879-0.152-1.148-0.469c-0.258-0.316-0.398-0.705-0.398-1.15
		c0-0.434,0.141-0.809,0.41-1.125c0.27-0.33,0.657-0.482,1.137-0.482C66.077,111.971,66.463,112.123,66.733,112.43z M64.376,130.955
		v-13.461h2.427v13.461H64.376z"/>
	<path fill="#149FC6" d="M82.068,111.197v12.453c0,1.348-0.281,2.602-0.851,3.764c-0.568,1.16-1.365,2.086-2.408,2.789
		c-1.044,0.691-2.229,1.045-3.57,1.045c-1.261,0-2.416-0.316-3.477-0.963c-1.055-0.633-1.889-1.5-2.51-2.592
		c-0.609-1.088-0.914-2.273-0.914-3.562c0-1.256,0.299-2.428,0.902-3.494c0.609-1.066,1.432-1.912,2.463-2.533
		c1.043-0.621,2.187-0.926,3.424-0.926c0.668,0,1.26,0.082,1.758,0.246c0.498,0.176,1.114,0.48,1.854,0.949v2.615
		c-0.957-0.938-2.076-1.406-3.365-1.406c-0.803,0-1.554,0.186-2.258,0.562c-0.697,0.387-1.266,0.926-1.682,1.617
		c-0.422,0.703-0.633,1.512-0.633,2.428c0,0.867,0.199,1.664,0.58,2.391c0.393,0.727,0.92,1.303,1.6,1.723
		c0.675,0.424,1.425,0.623,2.258,0.623c0.955,0,1.781-0.26,2.455-0.785c0.681-0.539,1.185-1.242,1.524-2.1
		c0.329-0.867,0.493-1.758,0.493-2.697v-12.146H82.068z"/>
	<path fill="#149FC6" d="M85.614,134.822c1.437,0.412,2.75,0.621,3.951,0.621c1.848,0,3.219-0.562,4.122-1.676
		c0.327-0.41,0.562-0.879,0.697-1.395c0.135-0.539,0.193-1.242,0.193-2.121v-5.113c0-0.949-0.158-1.865-0.493-2.721
		c-0.333-0.855-0.832-1.549-1.512-2.074c-0.68-0.539-1.513-0.809-2.463-0.809c-0.891,0-1.664,0.223-2.326,0.68
		c-0.662,0.445-1.166,1.031-1.529,1.758c-0.353,0.727-0.529,1.502-0.529,2.311c0,1.254,0.381,2.332,1.139,3.211
		c0.844,0.916,1.922,1.385,3.246,1.385c1.273,0,2.439-0.445,3.507-1.338v2.58c-0.751,0.424-1.372,0.727-1.876,0.891
		c-0.492,0.152-1.08,0.236-1.748,0.236c-1.242,0-2.391-0.307-3.422-0.926c-1.044-0.611-1.865-1.443-2.463-2.512
		c-0.598-1.066-0.902-2.227-0.902-3.494c0-1.289,0.311-2.473,0.926-3.574c0.621-1.102,1.459-1.971,2.509-2.604
		c1.067-0.645,2.216-0.961,3.47-0.961c1.309,0,2.486,0.363,3.53,1.078c1.054,0.715,1.864,1.664,2.438,2.826
		c0.574,1.184,0.855,2.416,0.855,3.705v5.873c0,1.338-0.281,2.521-0.867,3.576c-0.574,1.055-1.383,1.877-2.427,2.475
		c-1.044,0.586-2.222,0.879-3.53,0.879c-1.383,0-2.941-0.211-4.689-0.656L85.614,134.822z"/>
	<path fill="#149FC6" d="M110.224,128.984c-0.803,0.668-1.506,1.184-2.104,1.512c-0.611,0.352-1.244,0.574-1.912,0.682
		c-0.885,0.176-1.752,0.176-2.602,0c-0.851-0.176-1.63-0.506-2.346-0.986c-0.744-0.492-1.377-1.137-1.904-1.91
		c-0.539-0.764-0.934-1.607-1.155-2.521c-0.223-0.914-0.265-1.84-0.118-2.791c0.142-0.949,0.505-1.84,1.074-2.686
		c0.721-1.078,1.629-1.885,2.736-2.424c1.108-0.553,2.281-0.787,3.518-0.705c1.23,0.082,2.381,0.48,3.436,1.195
		c0.721,0.48,1.312,1.078,1.775,1.807c0.465,0.738,0.785,1.535,0.967,2.391c0.184,0.857,0.23,1.713,0.135,2.592l-10.217-0.082
		l0.146-1.959l7.779-0.033c0-0.609-0.152-1.186-0.475-1.725c-0.322-0.527-0.768-0.996-1.342-1.383
		c-0.67-0.447-1.408-0.693-2.229-0.727c-0.809-0.037-1.596,0.141-2.332,0.537c-0.763,0.389-1.391,0.951-1.877,1.678
		c-0.539,0.797-0.82,1.652-0.838,2.555c-0.029,0.902,0.158,1.76,0.568,2.545s0.949,1.42,1.642,1.875
		c1.253,0.846,2.638,0.986,4.138,0.412c0.781-0.27,1.525-0.738,2.24-1.408L110.224,128.984z"/>
	<path fill="#149FC6" d="M120.993,125.9c0,1.23,0.299,2.029,0.891,2.402c0.242,0.236,0.504,0.387,0.805,0.459
		c0.297,0.082,0.779,0.117,1.453,0.117h1.107v2.076h-1.248c-0.768,0-1.436-0.047-2.018-0.141c-0.574-0.096-1.119-0.283-1.611-0.576
		c-0.498-0.305-0.914-0.762-1.23-1.359c-0.354-0.586-0.518-1.535-0.518-2.873v-12.51h2.369v3.998h4.256v2.109h-4.256V125.9z"/>
	<path fill="#149FC6" d="M135.368,118.139c1.066,0.633,1.916,1.502,2.543,2.592c0.621,1.09,0.938,2.264,0.938,3.518
		c0,1.266-0.316,2.438-0.938,3.516c-0.627,1.068-1.465,1.924-2.531,2.545c-1.062,0.623-2.229,0.939-3.494,0.939
		c-1.262,0-2.428-0.316-3.494-0.951c-1.055-0.633-1.906-1.488-2.521-2.58c-0.633-1.078-0.938-2.25-0.938-3.527
		c0-1.268,0.316-2.439,0.938-3.518c0.609-1.078,1.455-1.924,2.521-2.557c1.078-0.621,2.24-0.938,3.494-0.938
		C133.134,117.178,134.288,117.494,135.368,118.139z M129.622,120.215c-0.691,0.422-1.236,0.984-1.641,1.688
		c-0.41,0.703-0.609,1.465-0.609,2.287c0,0.855,0.199,1.641,0.609,2.369c0.41,0.736,0.973,1.312,1.664,1.734
		c0.705,0.422,1.467,0.633,2.299,0.633c0.809,0,1.541-0.199,2.227-0.623c0.688-0.408,1.232-0.973,1.631-1.688
		s0.604-1.477,0.604-2.299c0-0.865-0.205-1.664-0.604-2.391c-0.398-0.715-0.949-1.277-1.643-1.699
		c-0.691-0.41-1.453-0.623-2.273-0.623C131.089,119.604,130.327,119.805,129.622,120.215z"/>
	<path fill="#149FC6" d="M145.843,130.955v-12.84c0-1.16,0.117-2.158,0.357-2.977c0.252-0.811,0.641-1.572,1.162-2.264
		c0.586-0.668,1.307-1.184,2.168-1.537c0.867-0.35,1.783-0.539,2.727-0.539c1.049,0,2.027,0.223,2.961,0.645
		c0.926,0.434,1.676,1.068,2.25,1.912s0.855,1.83,0.855,2.979c0,0.973-0.258,1.875-0.773,2.697
		c-0.504,0.842-1.184,1.465-2.027,1.898c0.832,0.27,1.488,0.668,1.945,1.184s0.773,1.125,0.938,1.83
		c0.178,0.689,0.258,1.512,0.258,2.461v4.551h-2.555v-3.811c0-1.244-0.152-2.275-0.445-3.074c-0.305-0.809-0.943-1.346-1.924-1.641
		c-0.434-0.105-0.955-0.164-1.564-0.164h-2.615v-2.121h2.029c0.738,0,1.43-0.131,2.098-0.387c0.65-0.27,1.191-0.67,1.607-1.186
		c0.416-0.539,0.627-1.184,0.627-1.945c0-1.033-0.369-1.852-1.102-2.463c-0.74-0.609-1.596-0.926-2.562-0.926
		c-0.633,0-1.23,0.152-1.775,0.434c-0.553,0.293-0.992,0.717-1.326,1.279c-0.281,0.443-0.457,0.949-0.533,1.512
		c-0.082,0.562-0.123,1.254-0.123,2.086v12.406H145.843z"/>
	<path fill="#149FC6" d="M172.036,128.949c-0.791,0.68-1.496,1.195-2.1,1.535s-1.236,0.574-1.904,0.68
		c-0.881,0.189-1.742,0.189-2.604,0.014c-0.844-0.166-1.629-0.482-2.346-0.963c-0.75-0.504-1.383-1.125-1.91-1.898
		c-0.551-0.762-0.938-1.607-1.172-2.521c-0.229-0.914-0.275-1.842-0.129-2.791c0.141-0.949,0.486-1.84,1.049-2.697
		c0.721-1.066,1.635-1.885,2.732-2.438c1.102-0.551,2.273-0.797,3.51-0.715c1.232,0.07,2.381,0.469,3.447,1.172
		c0.717,0.482,1.314,1.078,1.783,1.807c0.463,0.727,0.791,1.523,0.979,2.379c0.188,0.846,0.234,1.711,0.146,2.58l-10.211-0.023
		l0.129-1.957l7.783-0.07c0-0.611-0.162-1.186-0.49-1.725c-0.316-0.527-0.77-0.986-1.344-1.373c-0.674-0.445-1.412-0.68-2.227-0.713
		c-0.816-0.037-1.602,0.15-2.334,0.551c-0.768,0.387-1.383,0.949-1.869,1.688c-0.535,0.797-0.811,1.643-0.834,2.555
		c-0.012,0.904,0.176,1.76,0.586,2.545s0.961,1.408,1.654,1.865c1.266,0.844,2.65,0.973,4.15,0.398
		c0.773-0.281,1.506-0.752,2.227-1.418L172.036,128.949z"/>
	<path fill="#149FC6" d="M186.462,128.891c-0.785,0.691-1.471,1.207-2.068,1.559c-0.604,0.34-1.236,0.586-1.895,0.705
		c-0.879,0.186-1.746,0.209-2.602,0.047c-0.855-0.166-1.643-0.471-2.369-0.939c-0.75-0.48-1.395-1.113-1.934-1.875
		c-0.559-0.764-0.963-1.596-1.203-2.498c-0.24-0.914-0.299-1.842-0.164-2.791c0.123-0.949,0.463-1.852,1.014-2.707
		c0.705-1.09,1.602-1.912,2.697-2.486c1.104-0.562,2.264-0.82,3.506-0.75c1.23,0.059,2.381,0.434,3.459,1.125
		c0.727,0.469,1.336,1.068,1.805,1.771c0.482,0.727,0.814,1.523,1.016,2.367c0.191,0.855,0.252,1.713,0.17,2.592l-10.207,0.105
		l0.105-1.957l7.785-0.178c-0.018-0.609-0.182-1.184-0.51-1.711s-0.785-0.986-1.371-1.359c-0.676-0.436-1.42-0.67-2.24-0.68
		c-0.809-0.025-1.582,0.164-2.32,0.574c-0.752,0.398-1.373,0.973-1.848,1.711c-0.521,0.809-0.785,1.666-0.791,2.568
		s0.199,1.746,0.621,2.531c0.41,0.785,0.973,1.408,1.67,1.854c1.273,0.82,2.656,0.938,4.156,0.328
		c0.764-0.281,1.502-0.764,2.205-1.443L186.462,128.891z"/>
	<path fill="#149FC6" d="M191.362,130.955h-2.426v-14.457c0-1.701,0.48-3.014,1.43-3.965c0.92-0.889,2.258-1.336,4.004-1.336h1.93
		v1.947h-1.473c-1.189,0.012-2.068,0.281-2.631,0.82c-0.553,0.527-0.834,1.35-0.834,2.486v1.043h4.938v2.109h-4.938V130.955z"/>
	<path fill="#8CC541" d="M213.136,78.992c0,0-19.393-71.964-64.297-71.964c-19.264,0-76.555,47.411-74.86,46.591
		c10.569-5.1,48.751-19.355,82.681-8.172C198.702,59.294,207.638,74.326,213.136,78.992z"/>
	<path fill="#149FC6" d="M50.002,74.326c0,0,18.155,7.162,82.001-8.36c30.682-7.457,60.697,10.762,77.088,16.459
		c1.67,0.576-30.307-23.461-72.645-23.87C102.116,58.216,95.07,60.876,50.002,74.326z"/>
	<g>
		<defs>
			<path id="SVGID_1_" d="M9.219,73.387c0,0,26.151,4.68,62.567-15.254c36.434-19.92,78.143-16.812,103.99-2.18
				c25.834,14.633,35.494,25.536,35.494,25.536s-33.73-24.422-74.514-24.727c-40.279-0.305-50.332,5.418-60.914,8.219
				C65.255,67.781,33.188,80.867,9.219,73.387z"/>
		</defs>
		<clipPath id="SVGID_2_">
			<use xlink:href="#SVGID_1_"  overflow="visible"/>
		</clipPath>
		<path clip-path="url(#SVGID_2_)" fill="#CEAE7B" d="M138.005,151.553c7.059-0.152,14.117-0.293,21.164-0.363
			c-0.146-1.324-0.23-2.613-0.246-3.846c3.568,0.529,7.49,0.377,10.762,1.525c-0.645,0.703-1.184,1.465-1.652,2.262
			c0.504,0,1.008,0,1.512,0c1.578-2.568,3.699-4.49,6.285-5.346c-0.588,1.699-0.998,3.494-1.303,5.336h6.719
			c-1.207-1.973-2.1-4.141-2.65-6.262c4.426,2.297,9.039,4.221,13.625,6.215c3.211-0.047,6.441-0.072,9.637,0.127
			c3.57,0.236,7.129,0.658,10.693,0.902c0.855,0.072,1.723,0.143,2.604,0.199c1.266-0.127,2.508-0.07,3.709,0.131
			c1.408,0,2.809-0.094,4.156-0.34c0.035-0.014,0.059-0.023,0.094-0.023c-3.154-1.701-6.764-2.475-10.984-2.029
			c5.99-3.74,12.521-9.801,18.23-13.459c0.176-3.248,0.094-6.52-0.064-9.768c-7.24,5.615-14.238,11.35-22.471,16.473
			c-2.203-11.348,10.406-15.311,18.42-21.561c1.361,0.316,2.598,0.867,3.822,1.432c-0.352-5.299-0.908-10.6-1.512-15.877
			c-3.166,1.314-6.461,2.568-10.014,3.693c-3.025-6.26-6.834-10.961-9.859-17.211c3.377-3.188,10.838-4.338,13.834-7.701
			c-3.254-5.301-7.35-8.912-10.176-15.067c6.037-2.369,8.225-6.66,14.443-8.936c0.188,0.27,0.363,0.529,0.545,0.785
			c0.084-1.652,0.158-3.305,0.234-4.945c0.117-2.732,0.229-5.453,0.328-8.184c-6.348-2.381-13.664-2.852-19.584-6.098
			c5.615-4.373,10.123-9.299,15.979-13.553c0.316,3.387,2.182,6.658,3.871,9.777c0.07-4.771,0.035-9.557-0.166-14.326
			c-0.223-5.184-0.463-10.507-1.395-15.606c-0.434-2.393-0.879-5.627-2.896-7.27c-1.412-1.16-3.633-1.09-5.393-1.043
			c0.533,1.488,0.902,2.988,1.031,4.49c-3.211-5.908-10.732-3.141-17.229-2.438c0.645-0.564,1.215-1.162,1.717-1.783
			c-4.547,0-9.104,0-13.664,0c-1.904,1.244-4.695,2.053-5.891,3.646c-0.34-1.314-0.504-2.52-0.48-3.646
			c-4.736,0-9.48,0-14.223-0.012c-0.844,5.357-1.898,10.588-2.814,15.675c0.105-0.575-1.635,10.811-1.84,3.693
			c-0.17-5.884,0.756-12.698,1.793-19.368c-0.539,0-1.084,0-1.629,0c-1.16,15.665-2.021,31.585-4.789,44.271
			c-0.146,0.832-0.328,1.666-0.568,2.475c0.199-0.809,0.387-1.629,0.568-2.475c2.104-12.156-5.43-25.605-6.162-38.735
			c-0.094-1.689,0.176-3.588,0.658-5.547c-1.279,0-2.562,0-3.848-0.012c5.523,16.087,8.16,33.368,6.625,46.464
			c-3.047-14.973-8.242-31.023-12.258-46.476c-0.721,0-1.447,0-2.164-0.012c3.455,12.521,6.965,25.067,9.182,36.968
			c-8.207-10.881-15.084-24.013-17.604-36.991c-3.277-0.012-6.549-0.023-9.826-0.035c12.516,13.414,22.998,30.612,30.525,49.325
			c-13.602-16.311-28.932-32.982-42.865-49.396c-1.002,0-2.006-0.012-3.002-0.012c9.656,10.961,19.463,21.761,26.773,32.208
			c-10.799-11.092-28.461-17.19-37.371-32.267c-7.094-0.047-14.188-0.082-21.281-0.129c29.652,10.047,55.404,27.95,77.129,53.897
			C121.532,40.054,82.555,20.123,48.829,1.317c-1.875-0.012-3.746-0.023-5.615-0.035c36.07,18.021,72.744,38.233,107.9,55.327
			c0.586,1.102,2.074,1.406-0.305,2.156C107.849,49.304,68.421,32.761,36.448,1.258c-2.679-0.012-5.352-0.023-8.031-0.035
			C58.843,63.585,95.892,112.652,138.005,151.553z M79.454,66.236c5.721,4.467,14.086,3.609,21.232,5.205
			c-5.041,2.098-7.457,5.51-12.908,7.399C85.732,74.172,79.114,70.585,79.454,66.236z M144.056,66.152
			c-17.365,6.73-35.549,17.12-51.037,22.219C104.374,76.799,124.851,63.044,144.056,66.152z M114.89,113.871
			c-2.906-6.529-10.803-11.209-11.706-16.59c3.423,2.404,12.558-2.039,15.987-4.326C115.894,99.006,115.12,106.299,114.89,113.871z
			 M149.073,145.516c-4.42-5.006-9.537-8.629-13.857-13.834c8.734-5.17,15.664-19.275,16.883-23.086
			C151.372,121.035,152.169,134.248,149.073,145.516z M159.216,135.961c-0.383-2.744-0.266-5.254-0.629-7.996
			c7.357-0.867,14.498,6.857,15.084,14.443C169.356,139.254,163.94,138.281,159.216,135.961z M170.587,133.182
			c-2.596-6.107-8.523-5.521-12.316-9.215c4.967-4.703,10.881-8.912,15.975-13.555C171.257,117.119,171.585,125.479,170.587,133.182
			z M177.054,140.24c2.023-10.775,2.092-22.523,5.492-32.605C188.55,122.406,185.589,132.713,177.054,140.24z M182.276,137.473
			c4.941-5.475,4.959-13.412,3.975-21.842c3.154,5.006,11.203,21.689,12.955,29.51C195.462,138.785,189.581,136.699,182.276,137.473
			z M205.661,142.984c-5.27-11.527-10.652-22.816-15.729-34.74C200.274,110.518,209.97,134.143,205.661,142.984z M216.876,4.856
			c1.582,1.104,8.359,8.842,4.924,5.535C220.286,9.219,215.21,7.321,216.876,4.856z M212.257,3.321
			c0.926,3.541,0.533,6.414-1.221,8.619c-1.693-2.768-3.576-5.148-5.545-7.377C208.306,3.028,209.993,3.754,212.257,3.321z
			 M211.341,12.866c-0.209,3.225,0.816,7.058-2.133,8.911c-1.477-1.666-3.717-1.783-4.619-4.596
			C206.37,15.504,209.952,14.729,211.341,12.866z M218.739,22.703c-6.377,5.533-14.818,14.115-20.893,17.246
			c5.377-5.779,4.514-14.656,3.354-23.694C205.163,22.187,211.108,24.132,218.739,22.703z M200.591,20.568
			c0.586,3.107-0.1,5.592,0.932,8.912c-2.695,0.279-4.93-0.377-6.766-1.832C197.261,25.564,197.437,22.328,200.591,20.568z
			 M216.97,84.83c-9.809,5.1-21.385,9.322-31.047,14.492c-3.143-6.016-6.66-11.303-9.859-17.213
			c5.164-2.027,8.699-4.877,14.139-6.787c-3.717-3.848-6.93-8.713-9.859-14.129c3.963-3.4,8.348-6.588,13.213-9.555
			C200.86,63.703,209.554,72.988,216.97,84.83z M192.911,28.259c-0.891-1.807-3.084-1.008-4.619-1.523
			c-0.705-3.424,0.627-5.852,2.449-8.01C191.104,21.73,194.587,26.279,192.911,28.259z M183.655,6.745
			c1.119,2.885,3.451,3.354,4.314,6.764c-2.451,0.799-5.26,2.322-6.15,0C183.554,11.821,181.925,8.446,183.655,6.745z
			 M192.278,14.12c-5.088,5.146-8.523,15.206-3.658,22.757c0.047-1.5-2.68-4.396-0.627-4.912c1.4,3.775,2.133,7.211,1.236,9.836
			c-4.807-9.355-12.416-21.314-14.49-31.046C178.085,17.568,186.907,15.727,192.278,14.12z M171.989,20.908
			c2.15,4.949,7.416,11.797,6.783,17.211c-2.439-2.297-5.992-2.355-9.229-3.059C169.62,29.97,170.876,25.48,171.989,20.908z
			 M166.167,46.443c5.43,10.705,12.709,17.67,18.49,27.659c-8.383,3.506-15.734,7.527-23.977,11.104
			C161.794,71.933,161.688,58.039,166.167,46.443z M173.624,102.416c-4.713,4.057-9.502,8.078-14.439,12.02
			C155.985,106.109,168.196,95.018,173.624,102.416z M159.128,68.287c-4.51,22.102-14.229,45.678-35.303,56.958
			C136.798,107.365,146.083,83.564,159.128,68.287z M156.354,66.142c-13.107,17.809-21.598,42.008-35.303,56.946
			C122.618,99.531,132.853,76.201,156.354,66.142z M96.401,89.285c20.031-7.176,37.758-19.602,57.49-24.364
			C139.179,76.717,116.802,88.512,96.401,89.285z M152.966,62.156c-0.609,0.197-1.23,0.41-1.848,0.609
			c-32.107,4.303-62.109,4.35-85.206-9.428C95.047,56.035,125.015,57.078,152.966,62.156z M134.815,56.937
			c-23.16-1.842-46.604-3.117-68.915-6.682C96.226,37.744,113.454,51.498,134.815,56.937z M62.512,43.185
			c-3.764-5.312-10.493-12.838-11.407-18.748c7.45,6.648,15.752,11.584,24.633,15.359C71.083,41.414,67.565,40.771,62.512,43.185z"
			/>
	</g>
</g>
</svg>
